<svg id="Ebene_1" data-name="Ebene 1" xmlns="http://www.w3.org/2000/svg"
    xmlns:xlink="http://www.w3.org/1999/xlink" viewBox="0 0 348 71.739">
    <defs>
        <style>
            .cls-1{fill:none;}.cls-2,.cls-3{fill:#BORDER;}.cls-3{opacity:0.75;}.cls-4{fill:#BACKGROUND;}.cls-5,.cls-8{fill:#fff;}.cls-5{opacity:0.4;}.cls-6{opacity:0.5;}.cls-7{clip-path:url(#clip-path);}.cls-8{opacity:0.05;}.cls-9{fill:#SHADE;}.cls-10{clip-path:url(#clip-path-2);}.cls-11{clip-path:url(#clip-path-3);}</style>
        <clipPath id="clip-path" transform="translate(0 -1.131)">
            <rect class="cls-1" x="8.5" y="28.5" width="29" height="5" />
        </clipPath>
        <clipPath id="clip-path-2" transform="translate(0 -1.131)">
            <rect class="cls-1" x="8.5" y="34.5" width="29" height="5" />
        </clipPath>
        <clipPath id="clip-path-3" transform="translate(0 -1.131)">
            <rect class="cls-1" x="8.5" y="40.5" width="29" height="5" />
        </clipPath>
        <clipPath id="clip-path-4" transform="translate(0 -1.131)">
            <rect class="cls-1" x="8.5" y="46.5" width="29" height="5" />
        </clipPath>
    </defs>
    <path id="lower_outline" class="cls-2"
        d="M212.75,23.881c-12.75,0-17.75,1-35.25-3.25-20.8-5.052-66-15.5-109.75-15.5S0,14.381,0,14.381V68.744H11l1.75,4.125h19.5L34,68.744H348V24.818S215.962,23.881,212.75,23.881Z"
        transform="translate(0 -1.131)" />
    <path id="upper_outline" class="cls-3"
        d="M212.75,19.881c-12.75,0-17.75,1-35.25-3.25-20.8-5.052-66-15.5-109.75-15.5S0,10.381,0,10.381V64.744H11l1.75,4.125h19.5L34,64.744H348V20.818S215.962,19.881,212.75,19.881Z"
        transform="translate(0 -1.131)" />
    <path id="brick" class="cls-4"
        d="M212.75,21.881c-12.75,0-17.75,1-35.25-3.25-20.8-5.052-66-15.5-109.75-15.5S0,12.381,0,12.381V66.744H11l1.75,4.125h19.5L34,66.744H348V22.818S215.962,21.881,212.75,21.881Z"
        transform="translate(0 -1.131)" />
    <path id="highlight" class="cls-5"
        d="M212.75,21.881c-12.75,0-17.75,1-35.25-3.25-20.8-5.052-66-15.5-109.75-15.5S0,12.381,0,12.381v2s24-9.25,67.75-9.25S156.7,15.579,177.5,20.631c17.5,4.25,22.5,3.25,35.25,3.25,3.212,0,135.25.937,135.25.937v-2S215.962,21.881,212.75,21.881Z"
        transform="translate(0 -1.131)" />
    <g id="lines" class="cls-6">
        <g id="line">
            <g class="cls-7">
                <rect class="cls-8" x="6.161" y="24.817" width="31.458" height="7.952" />
                <rect class="cls-9" x="6.487" y="26.019" width="31.458" height="2.197" />
                <rect class="cls-9" x="37.141" y="27.463" width="0.603" height="4.945" />
                <rect class="cls-9" x="8.256" y="27.342" width="0.603" height="4.945" />
            </g>
        </g>
        <g id="line-2" data-name="line">
            <g class="cls-10">
                <rect class="cls-9" x="6.487" y="32.08" width="31.458" height="2.197" />
                <rect class="cls-8" x="6.161" y="30.877" width="31.458" height="7.952" />
                <rect class="cls-9" x="37.141" y="33.523" width="0.603" height="4.945" />
                <rect class="cls-9" x="8.256" y="33.402" width="0.603" height="4.945" />
            </g>
        </g>
        <g id="line-3" data-name="line">
            <g class="cls-11">
                <rect class="cls-9" x="6.487" y="38.095" width="31.458" height="2.197" />
                <rect class="cls-8" x="6.161" y="36.892" width="31.458" height="7.952" />
                <rect class="cls-9" x="37.141" y="39.538" width="0.603" height="4.945" />
                <rect class="cls-9" x="8.256" y="39.418" width="0.603" height="4.945" />
            </g>
        </g>
        <g id="line-4" data-name="line">
            <g class="cls-12">
                <rect class="cls-8" x="6.161" y="42.908" width="31.458" height="7.952" />
                <rect class="cls-9" x="6.487" y="44.11" width="31.458" height="2.197" />
                <rect class="cls-9" x="37.141" y="45.553" width="0.603" height="4.945" />
                <rect class="cls-9" x="8.256" y="45.433" width="0.603" height="4.945" />
            </g>
        </g>
    </g>
</svg>