<svg xmlns="http://www.w3.org/2000/svg" id="Ebene_1" data-name="Ebene 1" viewBox="0 0 348 96"><defs><style>.cls-1{fill:none;}.cls-2,.cls-3{fill:#383838;}.cls-3{opacity:0.75;}.cls-4{fill:#f24e50;}.cls-5,.cls-8{fill:#fff;}.cls-5{opacity:0.4;}.cls-6{opacity:0.5;}.cls-7{clip-path:url(#clip-path);}.cls-8{opacity:0.05;}.cls-9{fill:#ae2f2f;}.cls-10{clip-path:url(#clip-path-2);}.cls-11{clip-path:url(#clip-path-3);}.cls-12{clip-path:url(#clip-path-4);}.cls-13{clip-path:url(#clip-path-5);}.cls-14{clip-path:url(#clip-path-6);}.cls-15{clip-path:url(#clip-path-7);}</style><clipPath id="clip-path" transform="translate(0 11)"><rect class="cls-1" x="8.5" y="16.5" width="29" height="5" /></clipPath><clipPath id="clip-path-2" transform="translate(0 11)"><rect class="cls-1" x="8.5" y="22.5" width="29" height="5" /></clipPath><clipPath id="clip-path-3" transform="translate(0 11)"><rect class="cls-1" x="8.5" y="28.5" width="29" height="5" /></clipPath><clipPath id="clip-path-4" transform="translate(0 11)"><rect class="cls-1" x="8.5" y="34.5" width="29" height="5" /></clipPath><clipPath id="clip-path-5" transform="translate(0 11)"><rect class="cls-1" x="8.5" y="40.5" width="29" height="5" /></clipPath><clipPath id="clip-path-6" transform="translate(0 11)"><rect class="cls-1" x="8.5" y="46.5" width="29" height="5" /></clipPath><clipPath id="clip-path-7" transform="translate(0 11)"><rect class="cls-1" x="8.5" y="52.5" width="29" height="5" /></clipPath></defs><polygon class="cls-2" points="32.25 6.063 12.75 6.063 11.849 3.938 0 3.938 0 91.875 11 91.875 12.75 96 32.25 96 34 91.875 348 91.875 348 4.102 348 3.938 33.151 3.938 32.25 6.063" /><polygon class="cls-3" points="32.25 4.063 12.75 4.063 11.026 0 0 0 0 87.875 11 87.875 12.75 92 32.25 92 34 87.875 348 87.875 348 0.102 348 0 33.974 0 32.25 4.063" /><polygon class="cls-4" points="32.25 6.063 12.75 6.063 11 1.938 0 1.938 0 89.875 11 89.875 12.75 94 32.25 94 34 89.875 348 89.875 348 2.102 348 1.938 34 1.938 32.25 6.063" /><polygon id="highlight" class="cls-5" points="34 1.938 32.25 6.063 12.75 6.063 11 1.938 0 1.938 0 3.938 11 3.938 12.75 8.063 32.25 8.063 34 3.938 348 3.938 348 2.102 348 1.938 34 1.938" /><g id="lines" class="cls-6"><g id="line"><g class="cls-7"><rect class="cls-8" x="6.138" y="25.22" width="31.458" height="7.952" /><rect class="cls-9" x="6.465" y="26.422" width="31.458" height="2.197" /><rect class="cls-9" x="37.118" y="27.866" width="0.603" height="4.945" /><rect class="cls-9" x="8.234" y="27.745" width="0.603" height="4.945" /></g></g><g id="line-2" data-name="line"><g class="cls-10"><rect class="cls-8" x="6.183" y="31.144" width="31.458" height="7.952" /><rect class="cls-9" x="6.51" y="32.347" width="31.458" height="2.197" /><rect class="cls-9" x="37.163" y="33.79" width="0.603" height="4.945" /><rect class="cls-9" x="8.279" y="33.67" width="0.603" height="4.945" /></g></g><g id="line-3" data-name="line"><g class="cls-11"><rect class="cls-8" x="6.138" y="37.16" width="31.458" height="7.952" /><rect class="cls-9" x="6.465" y="38.362" width="31.458" height="2.197" /><rect class="cls-9" x="37.118" y="39.805" width="0.603" height="4.945" /><rect class="cls-9" x="8.234" y="39.685" width="0.603" height="4.945" /></g></g><g id="line-4" data-name="line"><g class="cls-12"><rect class="cls-8" x="6.183" y="43.084" width="31.458" height="7.952" /><rect class="cls-9" x="6.51" y="44.286" width="31.458" height="2.197" /><rect class="cls-9" x="37.163" y="45.73" width="0.603" height="4.945" /><rect class="cls-9" x="8.279" y="45.609" width="0.603" height="4.945" /></g></g><g id="line-5" data-name="line"><g class="cls-13"><rect class="cls-8" x="6.183" y="49.144" width="31.458" height="7.952" /><rect class="cls-9" x="6.51" y="50.347" width="31.458" height="2.197" /><rect class="cls-9" x="37.163" y="51.79" width="0.603" height="4.945" /><rect class="cls-9" x="8.279" y="51.67" width="0.603" height="4.945" /></g></g><g id="line-6" data-name="line"><g class="cls-14"><rect class="cls-8" x="6.138" y="55.205" width="31.458" height="7.952" /><rect class="cls-9" x="6.465" y="56.407" width="31.458" height="2.197" /><rect class="cls-9" x="37.118" y="57.851" width="0.603" height="4.945" /><rect class="cls-9" x="8.234" y="57.73" width="0.603" height="4.945" /></g></g><g id="line-7" data-name="line"><g class="cls-15"><rect class="cls-8" x="6.138" y="61.084" width="31.458" height="7.952" /><rect class="cls-9" x="6.465" y="62.286" width="31.458" height="2.197" /><rect class="cls-9" x="37.118" y="63.73" width="0.603" height="4.945" /><rect class="cls-9" x="8.234" y="63.609" width="0.603" height="4.945" /></g></g></g><text id="text" x="43px" y="33px" fill="#ffffff" fill-opacity="1" font-weight="bold" xml:space="preserve" style="font-family: 'Roboto Light', sans-serif;font-size:12.0pt;">Show variable</text><text id="text" x="43px" y="46.0px" fill="#ffffff" fill-opacity="1" font-weight="bold" xml:space="preserve" style="font-family: 'Roboto Light', sans-serif;font-size:12.0pt;" /><polygon points="326,34.0 338,34.0 332.0,46.0" id="triangle" stroke="white" fill="white" stroke-width="1" /><text id="drop" x="48px" y="46.0px" fill="#ffffff" fill-opacity="1" font-weight="normal" xml:space="preserve" style="font-family: 'Roboto Light', sans-serif;font-size:10.0pt;">new...</text><text id="text" x="88px" y="46.0px" fill="#ffffff" fill-opacity="1" font-weight="bold" xml:space="preserve" style="font-family: 'Roboto Light', sans-serif;font-size:12.0pt;" /><text id="text" x="43px" y="59.0px" fill="#ffffff" fill-opacity="1" font-weight="bold" xml:space="preserve" style="font-family: 'Roboto Light', sans-serif;font-size:12.0pt;">at X: </text><text id="text" x="78px" y="59.0px" fill="#ffffff" fill-opacity="1" font-weight="normal" xml:space="preserve" style="font-family: 'Roboto Light', sans-serif;font-size:12.0pt;"> 100 </text><line id="var_line" x1="78" y1="62.0" x2="110" y2="62.0" stroke="#ffffff" fill="#ffffff" stroke-width="1" /><text id="text" x="110px" y="59.0px" fill="#ffffff" fill-opacity="1" font-weight="bold" xml:space="preserve" style="font-family: 'Roboto Light', sans-serif;font-size:12.0pt;"> Y: </text><text id="text" x="131px" y="59.0px" fill="#ffffff" fill-opacity="1" font-weight="normal" xml:space="preserve" style="font-family: 'Roboto Light', sans-serif;font-size:12.0pt;"> 200 </text><line id="var_line" x1="131" y1="62.0" x2="163" y2="62.0" stroke="#ffffff" fill="#ffffff" stroke-width="1" /><text id="text" x="163px" y="59.0px" fill="#ffffff" fill-opacity="1" font-weight="bold" xml:space="preserve" style="font-family: 'Roboto Light', sans-serif;font-size:12.0pt;" /><text id="text" x="43px" y="72.0px" fill="#ffffff" fill-opacity="1" font-weight="bold" xml:space="preserve" style="font-family: 'Roboto Light', sans-serif;font-size:12.0pt;" /><desc id="json" tag="brick">{"base_type": "blue", "content": "Show variable\n*new...*\nat X: $100$ Y: $200$\n", "size": "1h", "path": "brick_red_2h.svg", "scaling_factor": 1.0, "x": 43, "y": 33}</desc></svg>