<svg id="Ebene_1" data-name="Ebene 1" xmlns="http://www.w3.org/2000/svg" xmlns:xlink="http://www.w3.org/1999/xlink" viewBox="0 0 348 119.063"><defs><style>.cls-1{fill:none;}.cls-2,.cls-3{fill:#383838;}.cls-3{opacity:0.75;}.cls-4{fill:#8f4cba;}.cls-5,.cls-8{fill:#fff;}.cls-5{opacity:0.4;}.cls-6{opacity:0.5;}.cls-7{clip-path:url(#clip-path);}.cls-8{opacity:0.05;}.cls-9{fill:#5d2d7c;}.cls-10{clip-path:url(#clip-path-2);}.cls-11{clip-path:url(#clip-path-3);}.cls-12{clip-path:url(#clip-path-4);}.cls-13{clip-path:url(#clip-path-5);}.cls-14{clip-path:url(#clip-path-6);}.cls-15{clip-path:url(#clip-path-7);}.cls-16{clip-path:url(#clip-path-8);}.cls-17{clip-path:url(#clip-path-9);}.cls-18{clip-path:url(#clip-path-10);}.cls-19{clip-path:url(#clip-path-11);}</style><clipPath id="clip-path" transform="translate(0 10.531)"><rect class="cls-1" x="8.5" y="16.5" width="29" height="5"/></clipPath><clipPath id="clip-path-2" transform="translate(0 10.531)"><rect class="cls-1" x="8.5" y="22.5" width="29" height="5"/></clipPath><clipPath id="clip-path-3" transform="translate(0 10.531)"><rect class="cls-1" x="8.5" y="28.5" width="29" height="5"/></clipPath><clipPath id="clip-path-4" transform="translate(0 10.531)"><rect class="cls-1" x="8.5" y="34.5" width="29" height="5"/></clipPath><clipPath id="clip-path-5" transform="translate(0 10.531)"><rect class="cls-1" x="8.5" y="40.5" width="29" height="5"/></clipPath><clipPath id="clip-path-6" transform="translate(0 10.531)"><rect class="cls-1" x="8.5" y="46.5" width="29" height="5"/></clipPath><clipPath id="clip-path-7" transform="translate(0 10.531)"><rect class="cls-1" x="8.5" y="52.5" width="29" height="5"/></clipPath><clipPath id="clip-path-8" transform="translate(0 10.531)"><rect class="cls-1" x="8.5" y="58.5" width="29" height="5"/></clipPath><clipPath id="clip-path-9" transform="translate(0 10.531)"><rect class="cls-1" x="8.5" y="64.5" width="29" height="5"/></clipPath><clipPath id="clip-path-10" transform="translate(0 10.531)"><rect class="cls-1" x="8.5" y="70.5" width="29" height="5"/></clipPath><clipPath id="clip-path-11" transform="translate(0 10.531)"><rect class="cls-1" x="8.5" y="76.5" width="29" height="5"/></clipPath></defs><polygon class="cls-2" points="32.25 6.063 12.75 6.063 11.849 3.938 0 3.938 0 114.938 11 114.938 12.75 119.063 32.25 119.063 34 114.938 348 114.938 348 4.102 348 3.938 33.151 3.938 32.25 6.063"/><polygon class="cls-3" points="32.25 4.063 12.75 4.063 11.026 0 0 0 0 110.938 11 110.938 12.75 115.063 32.25 115.063 34 110.938 348 110.938 348 0.102 348 0 33.974 0 32.25 4.063"/><polygon class="cls-4" points="32.25 6.094 12.75 6.094 11 1.969 0 1.969 0 112.969 11 112.969 12.75 117.094 32.25 117.094 34 112.969 348 112.969 348 2.134 348 1.969 34 1.969 32.25 6.094"/><polygon id="highlight" class="cls-5" points="34 1.938 32.25 6.063 12.75 6.063 11 1.938 0 1.938 0 3.938 11 3.938 12.75 8.063 32.25 8.063 34 3.938 348 3.938 348 2.102 348 1.938 34 1.938"/><g id="lines" class="cls-6"><g id="line"><g class="cls-7"><rect class="cls-8" x="6.121" y="24.591" width="31.458" height="7.952"/><rect class="cls-9" x="6.448" y="25.793" width="31.458" height="2.197"/><rect class="cls-9" x="37.102" y="27.237" width="0.603" height="4.945"/><rect class="cls-9" x="8.217" y="27.116" width="0.603" height="4.945"/></g></g><g id="line-2" data-name="line"><g class="cls-10"><rect class="cls-8" x="6.131" y="30.782" width="31.458" height="7.952"/><rect class="cls-9" x="6.457" y="31.984" width="31.458" height="2.197"/><rect class="cls-9" x="37.111" y="33.427" width="0.603" height="4.945"/><rect class="cls-9" x="8.226" y="33.307" width="0.603" height="4.945"/></g></g><g id="line-3" data-name="line"><g class="cls-11"><rect class="cls-8" x="6.185" y="36.709" width="31.458" height="7.952"/><rect class="cls-9" x="6.512" y="37.911" width="31.458" height="2.197"/><rect class="cls-9" x="37.165" y="39.355" width="0.603" height="4.945"/><rect class="cls-9" x="8.281" y="39.234" width="0.603" height="4.945"/></g></g><g id="line-4" data-name="line"><g class="cls-12"><rect class="cls-8" x="6.131" y="42.709" width="31.458" height="7.952"/><rect class="cls-9" x="6.457" y="43.911" width="31.458" height="2.197"/><rect class="cls-9" x="37.111" y="45.355" width="0.603" height="4.945"/><rect class="cls-9" x="8.226" y="45.234" width="0.603" height="4.945"/></g></g><g id="line-5" data-name="line"><g class="cls-13"><rect class="cls-8" x="6.125" y="48.688" width="31.458" height="7.952"/><rect class="cls-9" x="6.451" y="49.89" width="31.458" height="2.197"/><rect class="cls-9" x="37.105" y="51.334" width="0.603" height="4.945"/><rect class="cls-9" x="8.22" y="51.213" width="0.603" height="4.945"/></g></g><g id="line-6" data-name="line"><g class="cls-14"><rect class="cls-8" x="6.176" y="54.691" width="31.458" height="7.952"/><rect class="cls-9" x="6.503" y="55.893" width="31.458" height="2.197"/><rect class="cls-9" x="37.156" y="57.337" width="0.603" height="4.945"/><rect class="cls-9" x="8.272" y="57.216" width="0.603" height="4.945"/></g></g><g id="line-7" data-name="line"><g class="cls-15"><rect class="cls-8" x="6.176" y="60.727" width="31.458" height="7.952"/><rect class="cls-9" x="6.503" y="61.929" width="31.458" height="2.197"/><rect class="cls-9" x="37.156" y="63.373" width="0.603" height="4.945"/><rect class="cls-9" x="8.272" y="63.252" width="0.603" height="4.945"/></g></g><g id="line-8" data-name="line"><g class="cls-16"><rect class="cls-8" x="6.131" y="66.763" width="31.458" height="7.952"/><rect class="cls-9" x="6.457" y="67.965" width="31.458" height="2.197"/><rect class="cls-9" x="37.111" y="69.409" width="0.603" height="4.945"/><rect class="cls-9" x="8.226" y="69.288" width="0.603" height="4.945"/></g></g><g id="line-9" data-name="line"><g class="cls-17"><rect class="cls-8" x="6.221" y="72.781" width="31.458" height="7.952"/><rect class="cls-9" x="6.548" y="73.984" width="31.458" height="2.197"/><rect class="cls-9" x="37.201" y="75.427" width="0.603" height="4.945"/><rect class="cls-9" x="8.317" y="75.306" width="0.603" height="4.945"/></g></g><g id="line-10" data-name="line"><g class="cls-18"><rect class="cls-8" x="6.104" y="78.782" width="31.458" height="7.952"/><rect class="cls-9" x="6.43" y="79.984" width="31.458" height="2.197"/><rect class="cls-9" x="37.084" y="81.427" width="0.603" height="4.945"/><rect class="cls-9" x="8.199" y="81.307" width="0.603" height="4.945"/></g></g><g id="line-11" data-name="line"><g class="cls-19"><rect class="cls-8" x="6.131" y="84.918" width="31.458" height="7.952"/><rect class="cls-9" x="6.457" y="86.12" width="31.458" height="2.197"/><rect class="cls-9" x="37.111" y="87.563" width="0.603" height="4.945"/><rect class="cls-9" x="8.226" y="87.443" width="0.603" height="4.945"/></g></g></g></svg>