<svg id="Ebene_1" data-name="Ebene 1" xmlns="http://www.w3.org/2000/svg"
    xmlns:xlink="http://www.w3.org/1999/xlink" viewBox="0 0 348 95">
    <defs>
        <style>
            .cls-1{fill:none;}.cls-2,.cls-3{fill:#383838;}.cls-3{opacity:0.75;}.cls-4{fill:#f99761;}.cls-5,.cls-8{fill:#fff;}.cls-5{opacity:0.4;}.cls-6{opacity:0.5;}.cls-7{clip-path:url(#clip-path);}.cls-8{opacity:0.05;}.cls-9{fill:#a86d45;}.cls-10{clip-path:url(#clip-path-2);}.cls-11{clip-path:url(#clip-path-3);}</style>
        <clipPath id="clip-path" transform="translate(0 -3.5)">
            <rect class="cls-1" x="8.5" y="30.5" width="29" height="5" />
        </clipPath>
        <clipPath id="clip-path-2" transform="translate(0 -3.5)">
            <rect class="cls-1" x="8.5" y="36.5" width="29" height="5" />
        </clipPath>
        <clipPath id="clip-path-3" transform="translate(0 -3.5)">
            <rect class="cls-1" x="8.5" y="42.5" width="29" height="5" />
        </clipPath>
        <clipPath id="clip-path-4" transform="translate(0 -3.5)">
            <rect class="cls-1" x="8.5" y="48.5" width="29" height="5" />
        </clipPath>
        <clipPath id="clip-path-5" transform="translate(0 -3.5)">
            <rect class="cls-1" x="8.5" y="54.5" width="29" height="5" />
        </clipPath>
        <clipPath id="clip-path-6" transform="translate(0 -3.5)">
            <rect class="cls-1" x="8.5" y="60.5" width="29" height="5" />
        </clipPath>
        <clipPath id="clip-path-7" transform="translate(0 -3.5)">
            <rect class="cls-1" x="8.5" y="66.5" width="29" height="5" />
        </clipPath>
        <clipPath id="clip-path-8" transform="translate(0 -3.5)">
            <rect class="cls-1" x="8.5" y="72.5" width="29" height="5" />
        </clipPath>
    </defs>
    <path id="lower_outline" class="cls-2"
        d="M212.75,26.25c-12.75,0-17.75,1-35.25-3.25-20.8-5.051-66-15.5-109.75-15.5S0,16.75,0,16.75V94.375H11L12.75,98.5h19.5L34,94.375H348V27.188S215.962,26.25,212.75,26.25Z"
        transform="translate(0 -3.5)" />
    <path id="upper_outline" class="cls-3"
        d="M212.75,22.25c-12.75,0-17.75,1-35.25-3.25-20.8-5.051-66-15.5-109.75-15.5S0,12.75,0,12.75V90.375H11L12.75,94.5h19.5L34,90.375H348V23.188S215.962,22.25,212.75,22.25Z"
        transform="translate(0 -3.5)" />
    <path id="brick" class="cls-4"
        d="M212.75,24.25c-12.75,0-17.75,1-35.25-3.25-20.8-5.051-66-15.5-109.75-15.5S0,14.75,0,14.75V92.375H11L12.75,96.5h19.5L34,92.375H348V25.188S215.962,24.25,212.75,24.25Z"
        transform="translate(0 -3.5)" />
    <path id="highlight" class="cls-5"
        d="M212.75,24.25c-12.75,0-17.75,1-35.25-3.25-20.8-5.051-66-15.5-109.75-15.5S0,14.75,0,14.75v2S24,7.5,67.75,7.5,156.7,17.949,177.5,23c17.5,4.25,22.5,3.25,35.25,3.25,3.212,0,135.25.938,135.25.938v-2S215.962,24.25,212.75,24.25Z"
        transform="translate(0 -3.5)" />
    <g id="lines" class="cls-6">
        <g id="line">
            <g class="cls-7">
                <rect class="cls-8" x="6.189" y="24.665" width="31.458" height="7.952" />
                <rect class="cls-9" x="6.516" y="25.868" width="31.458" height="2.197" />
                <rect class="cls-9" x="37.17" y="27.311" width="0.603" height="4.945" />
                <rect class="cls-9" x="8.285" y="27.191" width="0.603" height="4.945" />
            </g>
        </g>
        <g id="line-2" data-name="line">
            <g class="cls-10">
                <rect class="cls-8" x="6.178" y="30.641" width="31.458" height="7.952" />
                <rect class="cls-9" x="6.505" y="31.843" width="31.458" height="2.197" />
                <rect class="cls-9" x="37.158" y="33.287" width="0.603" height="4.945" />
                <rect class="cls-9" x="8.274" y="33.166" width="0.603" height="4.945" />
            </g>
        </g>
        <g id="line-3" data-name="line">
            <g class="cls-11">
                <rect class="cls-8" x="6.148" y="36.566" width="31.458" height="7.952" />
                <rect class="cls-9" x="6.475" y="37.768" width="31.458" height="2.197" />
                <rect class="cls-9" x="37.128" y="39.212" width="0.603" height="4.945" />
                <rect class="cls-9" x="8.244" y="39.091" width="0.603" height="4.945" />
            </g>
        </g>
        <g id="line-4" data-name="line">
            <g class="cls-12">
                <rect class="cls-8" x="6.163" y="42.596" width="31.458" height="7.952" />
                <rect class="cls-9" x="6.49" y="43.798" width="31.458" height="2.197" />
                <rect class="cls-9" x="37.143" y="45.242" width="0.603" height="4.945" />
                <rect class="cls-9" x="8.259" y="45.121" width="0.603" height="4.945" />
            </g>
        </g>
        <g id="line-5" data-name="line">
            <g class="cls-13">
                <rect class="cls-8" x="6.148" y="48.46" width="31.458" height="7.952" />
                <rect class="cls-9" x="6.475" y="49.663" width="31.458" height="2.197" />
                <rect class="cls-9" x="37.128" y="51.106" width="0.603" height="4.945" />
                <rect class="cls-9" x="8.244" y="50.985" width="0.603" height="4.945" />
            </g>
        </g>
        <g id="line-6" data-name="line">
            <g class="cls-14">
                <rect class="cls-8" x="6.148" y="54.475" width="31.458" height="7.952" />
                <rect class="cls-9" x="6.475" y="55.678" width="31.458" height="2.197" />
                <rect class="cls-9" x="37.128" y="57.121" width="0.603" height="4.945" />
                <rect class="cls-9" x="8.244" y="57" width="0.603" height="4.945" />
            </g>
        </g>
        <g id="line-7" data-name="line">
            <g class="cls-15">
                <rect class="cls-8" x="6.148" y="60.505" width="31.458" height="7.952" />
                <rect class="cls-9" x="6.475" y="61.708" width="31.458" height="2.197" />
                <rect class="cls-9" x="37.128" y="63.151" width="0.603" height="4.945" />
                <rect class="cls-9" x="8.244" y="63.031" width="0.603" height="4.945" />
            </g>
        </g>
        <g id="line-8" data-name="line">
            <g class="cls-16">
                <rect class="cls-8" x="6.178" y="66.611" width="31.458" height="7.952" />
                <rect class="cls-9" x="6.505" y="67.813" width="31.458" height="2.197" />
                <rect class="cls-9" x="37.158" y="69.257" width="0.603" height="4.945" />
                <rect class="cls-9" x="8.274" y="69.136" width="0.603" height="4.945" />
            </g>
        </g>
    </g>
</svg>